# xmcd
#
# Track frame offsets:
#	150
#	17699
#	39501
#	54570
#	82047
#	103263
#	122778
#	138167
#	162597
#	180210
#	201676
#	223935
#	240295
#	260239
#
# Disc length: 3613 seconds
#
# Revision: 0
# Processed by: cddbd v1.5.2PL0 Copyright (c) Steve Scherf et al.
# Submitted via: audiograbber 1.83.01
#
DISCID=ce0e1b0e
DTITLE=Mississippi Heat - Let's Live It Up
DYEAR=2010
DGENRE=Blues
TTITLE0=Let's Live It Up
TTITLE1=Steadfast, Loyal And True
TTITLE2=Jumpin' In Chi-Town
TTITLE3=She Died From A Broken Heart
TTITLE4=Betty Sue
TTITLE5=Another Sleepless Night
TTITLE6=Peace Train
TTITLE7=Been Good To You
TTITLE8=I Want To Know
TTITLE9=Enlighten Me
TTITLE10=Daggers and Spears
TTITLE11=Don't Cry For Me
TTITLE12=I Got Some News Today
TTITLE13=Until We Meet Again
EXTD=
EXTT0=
EXTT1=
EXTT2=
EXTT3=
EXTT4=
EXTT5=
EXTT6=
EXTT7=
EXTT8=
EXTT9=
EXTT10=
EXTT11=
EXTT12=
EXTT13=
PLAYORDER=
